<svg xmlns="http://www.w3.org/2000/svg" xmlns:xlink="http://www.w3.org/1999/xlink" contentStyleType="text/css" data-diagram-type="DESCRIPTION" height="1971px" preserveAspectRatio="none" style="width:2988px;height:1971px;background:#FFFFFF;" version="1.1" viewBox="0 0 2988 1971" width="2988px" zoomAndPan="magnify"><defs/><g><!--cluster Controllers--><g class="cluster" data-entity="Controllers" data-source-line="25" data-uid="ent0003" id="cluster_Controllers"><path d="M8.5,1115.68 L176.9043,1115.68 A3.75,3.75 0 0 1 179.4043,1118.18 L186.4043,1217.9769 L1363.5,1217.9769 A2.5,2.5 0 0 1 1366,1220.4769 L1366,1366.78 A2.5,2.5 0 0 1 1363.5,1369.28 L8.5,1369.28 A2.5,2.5 0 0 1 6,1366.78 L6,1118.18 A2.5,2.5 0 0 1 8.5,1115.68" fill="none" style="stroke:#000000;stroke-width:1.5;"/><line style="stroke:#000000;stroke-width:1.5;" x1="6" x2="186.4043" y1="1217.9769" y2="1217.9769"/><text fill="#000000" font-family="Arial" font-size="14" font-weight="bold" lengthAdjust="spacing" textLength="87.4043" x="50" y="1170.6751">Controllers</text></g><!--cluster Spring Security Layer--><g class="cluster" data-entity="Spring Security Layer" data-source-line="42" data-uid="ent0012" id="cluster_Spring Security Layer"><path d="M1538.5,226.79 L1790.3027,226.79 A3.75,3.75 0 0 1 1792.8027,229.29 L1799.8027,329.0869 L2195.5,329.0869 A2.5,2.5 0 0 1 2198,331.5869 L2198,1363.63 A2.5,2.5 0 0 1 2195.5,1366.13 L1538.5,1366.13 A2.5,2.5 0 0 1 1536,1363.63 L1536,229.29 A2.5,2.5 0 0 1 1538.5,226.79" fill="none" style="stroke:#000000;stroke-width:1.5;"/><line style="stroke:#000000;stroke-width:1.5;" x1="1536" x2="1799.8027" y1="329.0869" y2="329.0869"/><text fill="#000000" font-family="Arial" font-size="14" font-weight="bold" lengthAdjust="spacing" textLength="170.8027" x="1580" y="281.7851">Spring Security Layer</text></g><!--cluster Security Components--><g class="cluster" data-entity="Security Components" data-source-line="53" data-uid="ent0018" id="cluster_Security Components"><path d="M1671.5,1418.28 L1921.3135,1418.28 A3.75,3.75 0 0 1 1923.8135,1420.78 L1930.8135,1520.5769 L2978.5,1520.5769 A2.5,2.5 0 0 1 2981,1523.0769 L2981,1663.07 A2.5,2.5 0 0 1 2978.5,1665.57 L1671.5,1665.57 A2.5,2.5 0 0 1 1669,1663.07 L1669,1420.78 A2.5,2.5 0 0 1 1671.5,1418.28" fill="none" style="stroke:#000000;stroke-width:1.5;"/><line style="stroke:#000000;stroke-width:1.5;" x1="1669" x2="1930.8135" y1="1520.5769" y2="1520.5769"/><text fill="#000000" font-family="Arial" font-size="14" font-weight="bold" lengthAdjust="spacing" textLength="168.8135" x="1713" y="1473.2751">Security Components</text></g><!--entity AuthController--><g class="entity" data-entity="AuthController" data-source-line="26" data-uid="ent0004" id="entity_AuthController"><rect fill="#F1F1F1" height="116.2969" rx="2.5" ry="2.5" style="stroke:#181818;stroke-width:0.5;" width="201.9854" x="748.01" y="1233.83"/><text fill="#000000" font-family="Arial" font-size="14" lengthAdjust="spacing" textLength="101.9854" x="798.01" y="1296.8251">AuthController</text></g><g class="entity" data-entity="GMN5" data-source-line="28" data-uid="ent0006" id="entity_GMN5"><path d="M1070.11,1230.68 L1070.11,1288.87 L950.04,1292.87 L1070.11,1296.87 L1070.11,1353.2737 A0,0 0 0 0 1070.11,1353.2737 L1349.8903,1353.2737 A0,0 0 0 0 1349.8903,1353.2737 L1349.8903,1240.68 L1339.8903,1230.68 L1070.11,1230.68 A0,0 0 0 0 1070.11,1230.68" fill="#FAFAFA" style="stroke:#181818;stroke-width:0.5;"/><path d="M1339.8903,1230.68 L1339.8903,1240.68 L1349.8903,1240.68 L1339.8903,1230.68" fill="#FAFAFA" style="stroke:#181818;stroke-width:0.5;"/><text fill="#000000" font-family="Arial" font-size="14" lengthAdjust="spacing" textLength="178.7803" x="1116.11" y="1288.6751">/api/v1/user/auth/register</text><text fill="#000000" font-family="Arial" font-size="14" lengthAdjust="spacing" textLength="158.5869" x="1116.11" y="1304.972">/api/v1/user/auth/login</text></g><!--entity ProtectedController--><g class="entity" data-entity="ProtectedController" data-source-line="32" data-uid="ent0008" id="entity_ProtectedController"><rect fill="#F1F1F1" height="116.2969" rx="2.5" ry="2.5" style="stroke:#181818;stroke-width:0.5;" width="241.1758" x="22.41" y="1233.83"/><text fill="#000000" font-family="Arial" font-size="14" lengthAdjust="spacing" textLength="141.1758" x="72.41" y="1296.8251">Protected Controller</text></g><g class="entity" data-entity="GMN9" data-source-line="34" data-uid="ent0010" id="entity_GMN9"><path d="M383.73,1230.68 L383.73,1288.87 L263.87,1292.87 L383.73,1296.87 L383.73,1353.2737 A0,0 0 0 0 383.73,1353.2737 L628.2779,1353.2737 A0,0 0 0 0 628.2779,1353.2737 L628.2779,1240.68 L618.2779,1230.68 L383.73,1230.68 A0,0 0 0 0 383.73,1230.68" fill="#FAFAFA" style="stroke:#181818;stroke-width:0.5;"/><path d="M618.2779,1230.68 L618.2779,1240.68 L628.2779,1240.68 L618.2779,1230.68" fill="#FAFAFA" style="stroke:#181818;stroke-width:0.5;"/><text fill="#000000" font-family="Arial" font-size="14" lengthAdjust="spacing" textLength="108.2402" x="429.73" y="1288.6751">/api/v1/pipeline</text><text fill="#000000" font-family="Arial" font-size="14" lengthAdjust="spacing" textLength="143.5479" x="429.73" y="1304.972">/api/v1/pipeline/{id}</text></g><!--entity CORS--><g class="entity" data-entity="CORS" data-source-line="43" data-uid="ent0013" id="entity_CORS"><rect fill="#F1F1F1" height="116.2969" rx="2.5" ry="2.5" style="stroke:#181818;stroke-width:0.5;" width="179.5498" x="1955.23" y="341.79"/><text fill="#000000" font-family="Arial" font-size="14" lengthAdjust="spacing" textLength="79.5498" x="2005.23" y="404.7851">CORS Filter</text></g><!--entity JWTFilter--><g class="entity" data-entity="JWTFilter" data-source-line="44" data-uid="ent0014" id="entity_JWTFilter"><rect fill="#F1F1F1" height="116.2969" rx="2.5" ry="2.5" style="stroke:#181818;stroke-width:0.5;" width="273.8857" x="1908.06" y="638.09"/><text fill="#000000" font-family="Arial" font-size="14" lengthAdjust="spacing" textLength="173.8857" x="1958.06" y="701.0851">JWT Authentication Filter</text></g><!--entity SecurityChain--><g class="entity" data-entity="SecurityChain" data-source-line="45" data-uid="ent0015" id="entity_SecurityChain"><rect fill="#F1F1F1" height="116.2969" rx="2.5" ry="2.5" style="stroke:#181818;stroke-width:0.5;" width="242.0713" x="1551.96" y="934.39"/><text fill="#000000" font-family="Arial" font-size="14" lengthAdjust="spacing" textLength="142.0713" x="1601.96" y="997.3851">Security Filter Chain</text></g><!--entity AuthManager--><g class="entity" data-entity="AuthManager" data-source-line="46" data-uid="ent0016" id="entity_AuthManager"><rect fill="#F1F1F1" height="116.2969" rx="2.5" ry="2.5" style="stroke:#181818;stroke-width:0.5;" width="268.5879" x="1913.71" y="934.39"/><text fill="#000000" font-family="Arial" font-size="14" lengthAdjust="spacing" textLength="168.5879" x="1963.71" y="997.3851">Authentication Manager</text></g><!--entity AuthProvider--><g class="entity" data-entity="AuthProvider" data-source-line="47" data-uid="ent0017" id="entity_AuthProvider"><rect fill="#F1F1F1" height="116.2969" rx="2.5" ry="2.5" style="stroke:#181818;stroke-width:0.5;" width="469.6807" x="1712.16" y="1233.83"/><text fill="#000000" font-family="Arial" font-size="14" lengthAdjust="spacing" textLength="369.6807" x="1762.16" y="1296.8251">Authentication Provider (DaoAuthenticationProvider)</text></g><!--entity UserDetailsService--><g class="entity" data-entity="UserDetailsService" data-source-line="54" data-uid="ent0019" id="entity_UserDetailsService"><rect fill="#F1F1F1" height="116.2969" rx="2.5" ry="2.5" style="stroke:#181818;stroke-width:0.5;" width="232.1865" x="2084.91" y="1533.28"/><text fill="#000000" font-family="Arial" font-size="14" lengthAdjust="spacing" textLength="132.1865" x="2134.91" y="1596.2751">UserDetailsService</text></g><!--entity PasswordEncoder--><g class="entity" data-entity="PasswordEncoder" data-source-line="55" data-uid="ent0020" id="entity_PasswordEncoder"><rect fill="#F1F1F1" height="116.2969" rx="2.5" ry="2.5" style="stroke:#181818;stroke-width:0.5;" width="280.2021" x="1684.9" y="1533.28"/><text fill="#000000" font-family="Arial" font-size="14" lengthAdjust="spacing" textLength="180.2021" x="1734.9" y="1596.2751">BCrypt Password Encoder</text></g><!--entity JWTUtil--><g class="entity" data-entity="JWTUtil" data-source-line="56" data-uid="ent0021" id="entity_JWTUtil"><rect fill="#F1F1F1" height="116.2969" rx="2.5" ry="2.5" style="stroke:#181818;stroke-width:0.5;" width="172.1533" x="2436.92" y="1533.28"/><text fill="#000000" font-family="Arial" font-size="14" lengthAdjust="spacing" textLength="72.1533" x="2486.92" y="1596.2751">JWT Utility</text></g><!--entity EntryPoint--><g class="entity" data-entity="EntryPoint" data-source-line="57" data-uid="ent0022" id="entity_EntryPoint"><rect fill="#F1F1F1" height="116.2969" rx="2.5" ry="2.5" style="stroke:#181818;stroke-width:0.5;" width="236.4453" x="2728.78" y="1533.28"/><text fill="#000000" font-family="Arial" font-size="14" lengthAdjust="spacing" textLength="136.4453" x="2778.78" y="1596.2751">RestAuthEntryPoint</text></g><!--entity User--><g class="entity" data-entity="User" data-source-line="20" data-uid="ent0002" id="entity_User"><ellipse cx="2044.9951" cy="14" fill="#F1F1F1" rx="8" ry="8" style="stroke:#181818;stroke-width:0.5;"/><path d="M2044.9951,22 L2044.9951,49 M2031.9951,30 L2057.9951,30 M2044.9951,49 L2031.9951,64 M2044.9951,49 L2057.9951,64" fill="none" style="stroke:#181818;stroke-width:0.5;"/><text fill="#000000" font-family="Arial" font-size="14" lengthAdjust="spacing" textLength="31.9102" x="2029.04" y="118.4951">User</text></g><!--entity UsersTable--><g class="entity" data-entity="UsersTable" data-source-line="63" data-uid="ent0023" id="entity_UsersTable"><path d="M1540.19,1839.57 C1540.19,1829.57 1688.002,1829.57 1688.002,1829.57 C1688.002,1829.57 1835.814,1829.57 1835.814,1839.57 L1835.814,1944.8669 C1835.814,1954.8669 1688.002,1954.8669 1688.002,1954.8669 C1688.002,1954.8669 1540.19,1954.8669 1540.19,1944.8669 L1540.19,1839.57" fill="#F1F1F1" style="stroke:#181818;stroke-width:0.5;"/><path d="M1540.19,1839.57 C1540.19,1849.57 1688.002,1849.57 1688.002,1849.57 C1688.002,1849.57 1835.814,1849.57 1835.814,1839.57" fill="none" style="stroke:#181818;stroke-width:0.5;"/><text fill="#000000" font-family="Arial" font-size="14" lengthAdjust="spacing" textLength="195.624" x="1590.19" y="1906.5651">USERS Table (H2 Database)</text></g><!--link SecurityChain to AuthProvider--><g class="link" data-entity-1="SecurityChain" data-entity-2="AuthProvider" data-source-line="68" data-uid="lnk24" id="link_SecurityChain_AuthProvider"><path d="M1766.74,1050.98 C1766.74,1103.66 1766.74,1174.71 1766.74,1227.42" fill="none" id="SecurityChain-to-AuthProvider" style="stroke:#181818;stroke-width:1.2;"/><polygon fill="#181818" points="1766.74,1233.42,1770.74,1224.42,1766.74,1228.42,1762.74,1224.42,1766.74,1233.42" style="stroke:#181818;stroke-width:1.2;"/><text fill="#000000" font-family="Arial" font-size="14" lengthAdjust="spacing" textLength="32.0742" x="1807.74" y="1098.1951">uses</text></g><!--link SecurityChain to JWTFilter--><g class="link" data-entity-1="SecurityChain" data-entity-2="JWTFilter" data-source-line="69" data-uid="lnk25" id="link_SecurityChain_JWTFilter"><path d="M1745.62,934.2 C1745.62,853.03 1745.62,715.87 1745.62,715.87 C1745.62,715.87 1822.88,715.87 1901.58,715.87" fill="none" id="SecurityChain-to-JWTFilter" style="stroke:#181818;stroke-width:1.2;"/><polygon fill="#181818" points="1907.58,715.87,1898.58,711.87,1902.58,715.87,1898.58,719.87,1907.58,715.87" style="stroke:#181818;stroke-width:1.2;"/><text fill="#000000" font-family="Arial" font-size="14" lengthAdjust="spacing" textLength="32.0742" x="1672.62" y="798.0551">uses</text></g><!--link JWTFilter to SecurityChain--><g class="link" data-entity-1="JWTFilter" data-entity-2="SecurityChain" data-source-line="105" data-uid="lnk49" id="link_JWTFilter_SecurityChain"><path d="M1908.04,676.87 C1810.72,676.87 1697.21,676.87 1697.21,676.87 C1697.21,676.87 1697.21,836.61 1697.21,927.9" fill="none" id="JWTFilter-to-SecurityChain" style="stroke:#181818;stroke-width:1.2;"/><polygon fill="#181818" points="1697.21,933.9,1701.21,924.9,1697.21,928.9,1693.21,924.9,1697.21,933.9" style="stroke:#181818;stroke-width:1.2;"/><text fill="#000000" font-family="Arial" font-size="14" lengthAdjust="spacing" textLength="65.1328" x="1591.21" y="655.9651">setAuth()</text></g><!--link SecurityChain to EntryPoint--><g class="link" data-entity-1="SecurityChain" data-entity-2="EntryPoint" data-source-line="70" data-uid="lnk26" id="link_SecurityChain_EntryPoint"><path d="M1739.45,1051.01 C1739.45,1080.82 1739.45,1110.87 1739.45,1110.87 C1739.45,1110.87 2787.89,1110.87 2787.89,1110.87 C2787.89,1110.87 2787.89,1398.91 2787.89,1526.98" fill="none" id="SecurityChain-to-EntryPoint" style="stroke:#181818;stroke-width:1.2;"/><polygon fill="#181818" points="2787.89,1532.98,2791.89,1523.98,2787.89,1527.98,2783.89,1523.98,2787.89,1532.98" style="stroke:#181818;stroke-width:1.2;"/><text fill="#000000" font-family="Arial" font-size="14" lengthAdjust="spacing" textLength="32.0742" x="2371.79" y="1066.8651">uses</text></g><!--link AuthProvider to UserDetailsService--><g class="link" data-entity-1="AuthProvider" data-entity-2="UserDetailsService" data-source-line="71" data-uid="lnk27" id="link_AuthProvider_UserDetailsService"><path d="M2117.22,1350.43 C2117.22,1403.1 2117.22,1474.16 2117.22,1526.87" fill="none" id="AuthProvider-to-UserDetailsService" style="stroke:#181818;stroke-width:1.2;"/><polygon fill="#181818" points="2117.22,1532.87,2121.22,1523.87,2117.22,1527.87,2113.22,1523.87,2117.22,1532.87" style="stroke:#181818;stroke-width:1.2;"/></g><!--link AuthProvider to UserDetailsService--><g class="link" data-entity-1="AuthProvider" data-entity-2="UserDetailsService" data-source-line="92" data-uid="lnk40" id="link_AuthProvider_UserDetailsService"><path d="M2149.53,1350.43 C2149.53,1403.1 2149.53,1474.16 2149.53,1526.87" fill="none" id="AuthProvider-to-UserDetailsService-1" style="stroke:#181818;stroke-width:1.2;"/><polygon fill="#181818" points="2149.53,1532.87,2153.53,1523.87,2149.53,1527.87,2145.53,1523.87,2149.53,1532.87" style="stroke:#181818;stroke-width:1.2;"/></g><!--link AuthProvider to PasswordEncoder--><g class="link" data-entity-1="AuthProvider" data-entity-2="PasswordEncoder" data-source-line="72" data-uid="lnk28" id="link_AuthProvider_PasswordEncoder"><path d="M1796.47,1350.43 C1796.47,1403.1 1796.47,1474.16 1796.47,1526.87" fill="none" id="AuthProvider-to-PasswordEncoder" style="stroke:#181818;stroke-width:1.2;"/><polygon fill="#181818" points="1796.47,1532.87,1800.47,1523.87,1796.47,1527.87,1792.47,1523.87,1796.47,1532.87" style="stroke:#181818;stroke-width:1.2;"/></g><!--link AuthProvider to PasswordEncoder--><g class="link" data-entity-1="AuthProvider" data-entity-2="PasswordEncoder" data-source-line="94" data-uid="lnk42" id="link_AuthProvider_PasswordEncoder"><path d="M1880.79,1350.43 C1880.79,1403.1 1880.79,1474.16 1880.79,1526.87" fill="none" id="AuthProvider-to-PasswordEncoder-1" style="stroke:#181818;stroke-width:1.2;"/><polygon fill="#181818" points="1880.79,1532.87,1884.79,1523.87,1880.79,1527.87,1876.79,1523.87,1880.79,1532.87" style="stroke:#181818;stroke-width:1.2;"/><text fill="#000000" font-family="Arial" font-size="14" lengthAdjust="spacing" textLength="71.1074" x="1921.79" y="1495.6451">matches()</text></g><!--link AuthManager to AuthProvider--><g class="link" data-entity-1="AuthManager" data-entity-2="AuthProvider" data-source-line="73" data-uid="lnk29" id="link_AuthManager_AuthProvider"><path d="M2047.77,1050.98 C2047.77,1103.66 2047.77,1174.71 2047.77,1227.42" fill="none" id="AuthManager-to-AuthProvider" style="stroke:#181818;stroke-width:1.2;"/><polygon fill="#181818" points="2047.77,1233.42,2051.77,1224.42,2047.77,1228.42,2043.77,1224.42,2047.77,1233.42" style="stroke:#181818;stroke-width:1.2;"/></g><!--link AuthManager to AuthProvider--><g class="link" data-entity-1="AuthManager" data-entity-2="AuthProvider" data-source-line="91" data-uid="lnk39" id="link_AuthManager_AuthProvider"><path d="M2114.81,1050.98 C2114.81,1103.66 2114.81,1174.71 2114.81,1227.42" fill="none" id="AuthManager-to-AuthProvider-1" style="stroke:#181818;stroke-width:1.2;"/><polygon fill="#181818" points="2114.81,1233.42,2118.81,1224.42,2114.81,1228.42,2110.81,1224.42,2114.81,1233.42" style="stroke:#181818;stroke-width:1.2;"/></g><!--link User to CORS--><g class="link" data-entity-1="User" data-entity-2="CORS" data-source-line="78" data-uid="lnk30" id="link_User_CORS"><path d="M2017.02,162.24 C2017.02,217.86 2017.02,285.23 2017.02,335.66" fill="none" id="User-to-CORS" style="stroke:#181818;stroke-width:1.2;"/><polygon fill="#181818" points="2017.02,341.66,2021.02,332.66,2017.02,336.66,2013.02,332.66,2017.02,341.66" style="stroke:#181818;stroke-width:1.2;"/><text fill="#000000" font-family="Arial" font-size="14" lengthAdjust="spacing" textLength="100.3652" x="2058.02" y="207.9451">POST /register</text></g><!--link User to CORS--><g class="link" data-entity-1="User" data-entity-2="CORS" data-source-line="87" data-uid="lnk35" id="link_User_CORS"><path d="M2045,162.24 C2045,217.86 2045,285.23 2045,335.66" fill="none" id="User-to-CORS-1" style="stroke:#181818;stroke-width:1.2;"/><polygon fill="#181818" points="2045,341.66,2049,332.66,2045,336.66,2041,332.66,2045,341.66" style="stroke:#181818;stroke-width:1.2;"/><text fill="#000000" font-family="Arial" font-size="14" lengthAdjust="spacing" textLength="80.1719" x="2086" y="305.9451">POST /login</text></g><!--link User to CORS--><g class="link" data-entity-1="User" data-entity-2="CORS" data-source-line="101" data-uid="lnk45" id="link_User_CORS"><path d="M2072.98,162.24 C2072.98,217.86 2072.98,285.23 2072.98,335.66" fill="none" id="User-to-CORS-2" style="stroke:#181818;stroke-width:1.2;"/><polygon fill="#181818" points="2072.98,341.66,2076.98,332.66,2072.98,336.66,2068.98,332.66,2072.98,341.66" style="stroke:#181818;stroke-width:1.2;"/><text fill="#000000" font-family="Arial" font-size="14" lengthAdjust="spacing" textLength="88.2383" x="1943.98" y="207.9451">Auth Header</text></g><!--link CORS to SecurityChain--><g class="link" data-entity-1="CORS" data-entity-2="SecurityChain" data-source-line="79" data-uid="lnk31" id="link_CORS_SecurityChain"><path d="M1954.76,380.87 C1824.8,380.87 1600.38,380.87 1600.38,380.87 C1600.38,380.87 1600.38,775.27 1600.38,928.16" fill="none" id="CORS-to-SecurityChain" style="stroke:#181818;stroke-width:1.2;"/><polygon fill="#181818" points="1600.38,934.16,1604.38,925.16,1600.38,929.16,1596.38,925.16,1600.38,934.16" style="stroke:#181818;stroke-width:1.2;"/><text fill="#000000" font-family="Arial" font-size="14" lengthAdjust="spacing" textLength="105.0068" x="1454.38" y="436.3251">Security Check</text></g><!--link CORS to SecurityChain--><g class="link" data-entity-1="CORS" data-entity-2="SecurityChain" data-source-line="88" data-uid="lnk36" id="link_CORS_SecurityChain"><path d="M1955.09,419.87 C1838.2,419.87 1648.79,419.87 1648.79,419.87 C1648.79,419.87 1648.79,781.99 1648.79,927.94" fill="none" id="CORS-to-SecurityChain-1" style="stroke:#181818;stroke-width:1.2;"/><polygon fill="#181818" points="1648.79,933.94,1652.79,924.94,1648.79,928.94,1644.79,924.94,1648.79,933.94" style="stroke:#181818;stroke-width:1.2;"/></g><!--link SecurityChain to AuthController--><g class="link" data-entity-1="SecurityChain" data-entity-2="AuthController" data-source-line="80" data-uid="lnk32" id="link_SecurityChain_AuthController"><path d="M1551.86,992.87 C1311.77,992.87 798.5,992.87 798.5,992.87 C798.5,992.87 798.5,1140.55 798.5,1227.6" fill="none" id="SecurityChain-to-AuthController" style="stroke:#181818;stroke-width:1.2;"/><polygon fill="#181818" points="798.5,1233.6,802.5,1224.6,798.5,1228.6,794.5,1224.6,798.5,1233.6" style="stroke:#181818;stroke-width:1.2;"/><text fill="#000000" font-family="Arial" font-size="14" lengthAdjust="spacing" textLength="101.001" x="912.82" y="948.8651">Public Allowed</text></g><!--link SecurityChain to AuthController--><g class="link" data-entity-1="SecurityChain" data-entity-2="AuthController" data-source-line="89" data-uid="lnk37" id="link_SecurityChain_AuthController"><path d="M1551.86,1021.87 C1322.82,1021.87 849,1021.87 849,1021.87 C849,1021.87 849,1147.93 849,1227.37" fill="none" id="SecurityChain-to-AuthController-1" style="stroke:#181818;stroke-width:1.2;"/><polygon fill="#181818" points="849,1233.37,853,1224.37,849,1228.37,845,1224.37,849,1233.37" style="stroke:#181818;stroke-width:1.2;"/><text fill="#000000" font-family="Arial" font-size="14" lengthAdjust="spacing" textLength="101.001" x="952.68" y="1075.8651">Public Allowed</text></g><!--link AuthController to PasswordEncoder--><g class="link" data-entity-1="AuthController" data-entity-2="PasswordEncoder" data-source-line="81" data-uid="lnk33" id="link_AuthController_PasswordEncoder"><path d="M849,1350.51 C849,1437.79 849,1591.87 849,1591.87 C849,1591.87 1408.56,1591.87 1678.64,1591.87" fill="none" id="AuthController-to-PasswordEncoder" style="stroke:#181818;stroke-width:1.2;"/><polygon fill="#181818" points="1684.64,1591.87,1675.64,1587.87,1679.64,1591.87,1675.64,1595.87,1684.64,1591.87" style="stroke:#181818;stroke-width:1.2;"/><text fill="#000000" font-family="Arial" font-size="14" lengthAdjust="spacing" textLength="62.1729" x="1043.14" y="1547.8651">encode()</text></g><!--link AuthController to UsersTable--><g class="link" data-entity-1="AuthController" data-entity-2="UsersTable" data-source-line="82" data-uid="lnk34" id="link_AuthController_UsersTable"><path d="M798.5,1350.42 C798.5,1501.42 798.5,1892.87 798.5,1892.87 C798.5,1892.87 1280.87,1892.87 1533.87,1892.87" fill="none" id="AuthController-to-UsersTable" style="stroke:#181818;stroke-width:1.2;"/><polygon fill="#181818" points="1539.87,1892.87,1530.87,1888.87,1534.87,1892.87,1530.87,1896.87,1539.87,1892.87" style="stroke:#181818;stroke-width:1.2;"/><text fill="#000000" font-family="Arial" font-size="14" lengthAdjust="spacing" textLength="43.6953" x="813.96" y="1848.8651">save()</text></g><!--link AuthController to AuthManager--><g class="link" data-entity-1="AuthController" data-entity-2="AuthManager" data-source-line="90" data-uid="lnk38" id="link_AuthController_AuthManager"><path d="M899.5,1233.55 C899.5,1202.58 899.5,1170.87 899.5,1170.87 C899.5,1170.87 1980.74,1170.87 1980.74,1170.87 C1980.74,1170.87 1980.74,1108.94 1980.74,1056.93" fill="none" id="AuthController-to-AuthManager" style="stroke:#181818;stroke-width:1.2;"/><polygon fill="#181818" points="1980.74,1050.93,1976.74,1059.93,1980.74,1055.93,1984.74,1059.93,1980.74,1050.93" style="stroke:#181818;stroke-width:1.2;"/><text fill="#000000" font-family="Arial" font-size="14" lengthAdjust="spacing" textLength="99.9824" x="1328.75" y="1126.8651">authenticate()</text></g><!--link UserDetailsService to UsersTable--><g class="link" data-entity-1="UserDetailsService" data-entity-2="UsersTable" data-source-line="93" data-uid="lnk41" id="link_UserDetailsService_UsersTable"><path d="M2201,1649.9 C2201,1737.57 2201,1892.87 2201,1892.87 C2201,1892.87 1993.57,1892.87 1842.04,1892.87" fill="none" id="UserDetailsService-to-UsersTable" style="stroke:#181818;stroke-width:1.2;"/><polygon fill="#181818" points="1836.04,1892.87,1845.04,1896.87,1841.04,1892.87,1845.04,1888.87,1836.04,1892.87" style="stroke:#181818;stroke-width:1.2;"/></g><!--link AuthController to JWTUtil--><g class="link" data-entity-1="AuthController" data-entity-2="JWTUtil" data-source-line="95" data-uid="lnk43" id="link_AuthController_JWTUtil"><path d="M899.5,1350.27 C899.5,1393.1 899.5,1443.87 899.5,1443.87 C899.5,1443.87 2479.96,1443.87 2479.96,1443.87 C2479.96,1443.87 2479.96,1485.86 2479.96,1527.11" fill="none" id="AuthController-to-JWTUtil" style="stroke:#181818;stroke-width:1.2;"/><polygon fill="#181818" points="2479.96,1533.11,2483.96,1524.11,2479.96,1528.11,2475.96,1524.11,2479.96,1533.11" style="stroke:#181818;stroke-width:1.2;"/><text fill="#000000" font-family="Arial" font-size="14" lengthAdjust="spacing" textLength="117.0586" x="1529.55" y="1399.8651">generateToken()</text></g><!--link JWTUtil to User--><g class="link" data-entity-1="JWTUtil" data-entity-2="User" data-source-line="96" data-uid="lnk44" id="link_JWTUtil_User"><path d="M2566.04,1532.89 C2566.04,1258.15 2566.04,109.87 2566.04,109.87 C2566.04,109.87 2241.98,109.87 2107.26,109.87" fill="none" id="JWTUtil-to-User" style="stroke:#181818;stroke-width:1.2;"/><polygon fill="#181818" points="2101.26,109.87,2110.26,113.87,2106.26,109.87,2110.26,105.87,2101.26,109.87" style="stroke:#181818;stroke-width:1.2;"/><text fill="#000000" font-family="Arial" font-size="14" lengthAdjust="spacing" textLength="73.6846" x="2452.04" y="544.9851">JWT Token</text></g><!--link CORS to JWTFilter--><g class="link" data-entity-1="CORS" data-entity-2="JWTFilter" data-source-line="102" data-uid="lnk46" id="link_CORS_JWTFilter"><path d="M2045,458.48 C2045,510.42 2045,579.91 2045,631.82" fill="none" id="CORS-to-JWTFilter" style="stroke:#181818;stroke-width:1.2;"/><polygon fill="#181818" points="2045,637.82,2049,628.82,2045,632.82,2041,628.82,2045,637.82" style="stroke:#181818;stroke-width:1.2;"/><text fill="#000000" font-family="Arial" font-size="14" lengthAdjust="spacing" textLength="97.3027" x="2086" y="504.1451">Extract Token</text></g><!--link JWTFilter to JWTUtil--><g class="link" data-entity-1="JWTFilter" data-entity-2="JWTUtil" data-source-line="103" data-uid="lnk47" id="link_JWTFilter_JWTUtil"><path d="M2182.3,696.87 C2323.53,696.87 2523,696.87 2523,696.87 C2523,696.87 2523,1328.45 2523,1527.08" fill="none" id="JWTFilter-to-JWTUtil" style="stroke:#181818;stroke-width:1.2;"/><polygon fill="#181818" points="2523,1533.08,2527,1524.08,2523,1528.08,2519,1524.08,2523,1533.08" style="stroke:#181818;stroke-width:1.2;"/><text fill="#000000" font-family="Arial" font-size="14" lengthAdjust="spacing" textLength="67.1357" x="2415" y="900.6151">validate()</text></g><!--link JWTFilter to UserDetailsService--><g class="link" data-entity-1="JWTFilter" data-entity-2="UserDetailsService" data-source-line="104" data-uid="lnk48" id="link_JWTFilter_UserDetailsService"><path d="M2182.39,725.87 C2219.54,725.87 2249.69,725.87 2249.69,725.87 C2249.69,725.87 2249.69,1332.51 2249.69,1526.95" fill="none" id="JWTFilter-to-UserDetailsService" style="stroke:#181818;stroke-width:1.2;"/><polygon fill="#181818" points="2249.69,1532.95,2253.69,1523.95,2249.69,1527.95,2245.69,1523.95,2249.69,1532.95" style="stroke:#181818;stroke-width:1.2;"/><text fill="#000000" font-family="Arial" font-size="14" lengthAdjust="spacing" textLength="72.7549" x="2136.69" y="1149.7551">loadUser()</text></g><!--link SecurityChain to ProtectedController--><g class="link" data-entity-1="SecurityChain" data-entity-2="ProtectedController" data-source-line="106" data-uid="lnk50" id="link_SecurityChain_ProtectedController"><path d="M1551.66,963.87 C1189.79,963.87 143,963.87 143,963.87 C143,963.87 143,1133.41 143,1227.7" fill="none" id="SecurityChain-to-ProtectedController" style="stroke:#181818;stroke-width:1.2;"/><polygon fill="#181818" points="143,1233.7,147,1224.7,143,1228.7,139,1224.7,143,1233.7" style="stroke:#181818;stroke-width:1.2;"/><text fill="#000000" font-family="Arial" font-size="14" lengthAdjust="spacing" textLength="109.6689" x="562.42" y="919.8651">Access Granted</text></g><!--link JWTFilter to EntryPoint--><g class="link" data-entity-1="JWTFilter" data-entity-2="EntryPoint" data-source-line="111" data-uid="lnk51" id="link_JWTFilter_EntryPoint"><path d="M2182.41,667.87 C2411.6,667.87 2847,667.87 2847,667.87 C2847,667.87 2847,1323.94 2847,1526.95" fill="none" id="JWTFilter-to-EntryPoint" style="stroke:#181818;stroke-width:1.2;"/><polygon fill="#181818" points="2847,1532.95,2851,1523.95,2847,1527.95,2843,1523.95,2847,1532.95" style="stroke:#181818;stroke-width:1.2;"/><text fill="#000000" font-family="Arial" font-size="14" lengthAdjust="spacing" textLength="93.6934" x="2713" y="724.1151">Invalid Token</text></g><!--link EntryPoint to User--><g class="link" data-entity-1="EntryPoint" data-entity-2="User" data-source-line="112" data-uid="lnk52" id="link_EntryPoint_User"><path d="M2906.11,1533.18 C2906.11,1253.06 2906.11,57.87 2906.11,57.87 C2906.11,57.87 2298.36,57.87 2107.17,57.87" fill="none" id="EntryPoint-to-User" style="stroke:#181818;stroke-width:1.2;"/><polygon fill="#181818" points="2101.17,57.87,2110.17,61.87,2106.17,57.87,2110.17,53.87,2101.17,57.87" style="stroke:#181818;stroke-width:1.2;"/><text fill="#000000" font-family="Arial" font-size="14" lengthAdjust="spacing" textLength="125.166" x="2740.11" y="349.0451">401 Unauthorized</text></g><!--SRC=[hLPDR-Cs4BtxLmnoIN9elGvIeF2XWEjukosstI1oqFE4cbY4QL8WQQVkOlzxXunaKR9ikKLr4kUz8OTlFgHh-ExaCxg61uahYnl8o7kfLuvDP_XkBNM9WLzYdZCVxZyaHYKr-Nr9OAmlJ0AuCa0EIgFsuIs1DaORKLYp8V1scoAkmDoyXKDUKRaKoUaLjyf_DDh_WUmuin9LFvx9lmaczmaepAOqcXZoUqLWINZKAvNkRr6l7PKm-J6zdJOvHUjTQfrPQzwo4aK8z8SZP5b8iUQhEvXyVpSwh-urp8GtzZm90mMU7Td1tUPyVskK8ZkGLev-ZIk2gyJZ2hwEW9-3N70rs_gYOLm1EcYReeCsdbMLgyA3UUqZX6UCfHpl9kCjtsECp1bRMaddprAKMKaTST9vF6VK3V7HibLuog4Jw04u6-qfLXfFAKkADNmA67-L-RTscDy6SvMLDXHGHc9hfT_3PzoJlJ1hlRuz-Pj_UShWerI-qYIikvpV_bp6dF522lJIwDI3qVTLr-rmzZiCymAbZYur4Yrz5PMSz3jglb1JMTLwm8kJjfCv7thpWAQDrT3jOSlQSabAwZlDwwClRQCUpvvqX1v-88zIkOpiJWgAKHwRkuu_p-s-zF28phqPcyD22nvDLPrNnihMbzvdBnK7LoSqBBkq9t8-gBNWBjW_6gbzP3VB2-HxG8ylo7FxB2-lM2n7jk3oNE8B3-MRJtS7_zk3AYw2mmTJoOr7MaWQI5YhDfduKwj4O0eyUrmFwz06focDL3MdjNMWz2JwYDDDPz8LH_4E2lCKHwojkbgPj_CE8RvuI9mRKtZyaYsXcTFH6k3svQT9tnGarYT4RWPis7dxegI0cUAOA1zry1uTs8VYsyrj7xif5YOwt0NQa3YVmyVbFwlo_cdgb-J_KI3D_1Im6NEr1YVBufB2EpPrX1miJGvgWruKvFfpKaqQfgr84nSXBSsQD9Dhf3wGAM5CHNWmRSq7Vw7pClRRlyzX21S-4UPfMQTDllYBsqRuAgO6QLziXqhcxmbfKthKdO8oc0VWYDtj9qTn5ZFlk91wVbZ2VOG8Vvo_y7yiGuCQFkjGJiRoht9-WNhjQ5k3xbSTDQXqIg0aj_SV9gqJH_y0]--></g></svg>